<svg xmlns="http://www.w3.org/2000/svg" viewBox="0 0 400 300" width="600" height="450"><rect width="100%" height="100%" fill="#26413c"/><path d="M41.4,173.8 Q199.6,175.1 357.7,173.6" fill="none" stroke="#f4f1e8" stroke-width="3" stroke-linecap="round" stroke-linejoin="round"/><text x="42" y="205" font-size="18" text-anchor="middle" fill="#f4f1e8" font-family="Comic Sans MS, cursive">0</text><text x="358" y="205" font-size="18" text-anchor="middle" fill="#f4f1e8" font-family="Comic Sans MS, cursive">1</text><path d="M121.4,163.9 Q121.7,173.9 121.1,183.9" fill="none" stroke="#f4f1e8" stroke-width="3" stroke-linecap="round" stroke-linejoin="round"/><path d="M199.9,163.1 Q199.2,173.6 199.9,184" fill="none" stroke="#f4f1e8" stroke-width="3" stroke-linecap="round" stroke-linejoin="round"/><path d="M278.6,164.4 Q278.4,174.3 279.7,184.2" fill="none" stroke="#f4f1e8" stroke-width="3" stroke-linecap="round" stroke-linejoin="round"/><path d="M116,174 a5,5 0 1,0 10,0 a5,5 0 1,0 -10,0 Z" fill="#ffd166" fill-opacity="0.35"/><path d="M121,168 Q123,170.9 124.6,171.3 Q126.2,171.7 125.5,173.1 Q124.9,174.6 125,176.1 Q125.1,177.6 123.8,178.6 Q122.5,179.6 120.9,179.5 Q119.3,179.5 118.1,178.4 Q116.8,177.4 115.9,176.1 Q114.9,174.7 115.8,173.3 Q116.6,171.8 117.5,170.7 Q118.4,169.6 119.8,169.2 Q121.2,168.9 122.8,169.1 L124.3,169.3" fill="none" stroke="#f4f1e8" stroke-width="3" stroke-linecap="round" stroke-linejoin="round"/><text x="121" y="140" font-size="24" text-anchor="middle" fill="#f4f1e8" font-family="Comic Sans MS, cursive">1/4</text><text x="200" y="86" font-size="24" text-anchor="middle" fill="#f4f1e8" font-family="Comic Sans MS, cursive">Fraction?</text></svg>