<svg xmlns="http://www.w3.org/2000/svg" viewBox="0 0 400 300" width="600" height="450"><rect width="100%" height="100%" fill="#26413c"/><path d="M53.6,101.6 Q199.9,100.5 346.2,102.3 Q348.4,142.3 346.3,182.3 Q200.3,181.4 54.4,181.1 Q54.6,141 53.9,100.9" fill="none" stroke="#f4f1e8" stroke-width="3" stroke-linecap="round" stroke-linejoin="round"/><path d="M54.8,101.7 Q90.6,100.9 126.5,102.1 Q125.4,142.4 126.9,182.6 Q90.2,184.2 53.6,181.3 Q55.1,141.2 55,101.2" fill="none" stroke="#f4f1e8" stroke-width="3" stroke-linecap="round" stroke-linejoin="round"/><path d="M127.4,102.7 Q164.2,104.6 200.9,101.5 Q198.6,141.4 200.7,181.3 Q163.7,184.3 126.7,182.2 Q124.3,142.2 127.8,102.2" fill="none" stroke="#f4f1e8" stroke-width="3" stroke-linecap="round" stroke-linejoin="round"/><path d="M199.3,102.6 Q236.4,102.6 273.5,101.9 Q273.1,142 273.4,182 Q237.1,182 200.8,181.3 Q199.7,141.7 199.8,102" fill="none" stroke="#f4f1e8" stroke-width="3" stroke-linecap="round" stroke-linejoin="round"/><path d="M273.1,101.6 Q309.5,99.2 345.9,102.3 Q347.5,141.9 346.5,181.6 Q309.4,179.3 272.3,182.5 Q269.4,141.7 272.8,101" fill="none" stroke="#f4f1e8" stroke-width="3" stroke-linecap="round" stroke-linejoin="round"/><text x="200" y="222" font-size="24" text-anchor="middle" fill="#f4f1e8" font-family="Comic Sans MS, cursive">20</text><text x="200" y="262" font-size="24" text-anchor="middle" fill="#f4f1e8" font-family="Comic Sans MS, cursive">20 ÷ 4 = 5</text></svg>