<svg xmlns="http://www.w3.org/2000/svg" viewBox="0 0 400 300" width="600" height="450"><rect width="100%" height="100%" fill="#26413c"/><path d="M64.2,112 Q69.9,111.8 75.6,112.4 Q79.3,107.8 83.1,103.2 Q86.3,112.6 90.9,121.3 Q95.8,112.6 99.8,103.4 Q104.8,112 108.8,121.1 Q113.6,116.8 118.2,112.2 Q124.1,112.3 130.1,112.3" fill="none" stroke="#f4f1e8" stroke-width="3" stroke-linecap="round" stroke-linejoin="round"/><path d="M64.7,180.2 Q184.7,179.9 304.7,180.8" fill="none" stroke="#f4f1e8" stroke-width="3" stroke-linecap="round" stroke-linejoin="round"/><path d="M287.3,179.7 Q295.4,179.8 303.5,179.6" fill="none" stroke="#f4f1e8" stroke-width="3" stroke-linecap="round" stroke-linejoin="round"/><path d="M296.8,183.5 L304,180 L296.8,176.5" fill="none" stroke="#f4f1e8" stroke-width="3" stroke-linecap="round" stroke-linejoin="round"/><text x="64" y="211" font-size="18" text-anchor="middle" fill="#f4f1e8" font-family="Comic Sans MS, cursive">0</text><text x="304" y="211" font-size="18" text-anchor="middle" fill="#f4f1e8" font-family="Comic Sans MS, cursive">1</text><path d="M124,169.8 Q124.2,179.5 124.3,189.2" fill="none" stroke="#f4f1e8" stroke-width="3" stroke-linecap="round" stroke-linejoin="round"/><path d="M184.6,169.9 Q183.2,179.8 183.1,189.7" fill="none" stroke="#f4f1e8" stroke-width="3" stroke-linecap="round" stroke-linejoin="round"/><path d="M243.7,170.3 Q244.2,180.2 244.8,190" fill="none" stroke="#f4f1e8" stroke-width="3" stroke-linecap="round" stroke-linejoin="round"/><path d="M93.8,151.9 Q93.7,163.7 93.7,175.6" fill="none" stroke="#f4f1e8" stroke-width="3" stroke-linecap="round" stroke-linejoin="round"/><text x="94" y="145" font-size="18" text-anchor="middle" fill="#f4f1e8" font-family="Comic Sans MS, cursive">1/4</text><path d="M154.4,152.8 Q153.5,164.4 153.8,175.9" fill="none" stroke="#f4f1e8" stroke-width="3" stroke-linecap="round" stroke-linejoin="round"/><text x="154" y="145" font-size="18" text-anchor="middle" fill="#f4f1e8" font-family="Comic Sans MS, cursive">1/4</text><path d="M213.6,152.8 Q213.3,164.6 213.6,176.5" fill="none" stroke="#f4f1e8" stroke-width="3" stroke-linecap="round" stroke-linejoin="round"/><text x="214" y="145" font-size="18" text-anchor="middle" fill="#f4f1e8" font-family="Comic Sans MS, cursive">1/4</text><path d="M274.2,152.3 Q274.4,164.3 273.7,176.4" fill="none" stroke="#f4f1e8" stroke-width="3" stroke-linecap="round" stroke-linejoin="round"/><text x="274" y="145" font-size="18" text-anchor="middle" fill="#f4f1e8" font-family="Comic Sans MS, cursive">1/4</text><path d="M124,175.3 Q127.2,175.3 127.6,176.8 Q128.1,178.4 128.5,179.7 Q128.9,181.1 127.9,182.1 Q126.9,183 125.7,183.4 Q124.6,183.8 123.3,184 Q122,184.3 120.5,183.7 Q118.9,183 118.6,181.4 Q118.3,179.7 118.8,178 Q119.2,176.4 121,176.2 Q122.7,176.1 124.2,175.1 Q125.7,174.1 126.7,175.5 L127.8,176.8" fill="none" stroke="#f4f1e8" stroke-width="3" stroke-linecap="round" stroke-linejoin="round"/><text x="124" y="254" font-size="24" text-anchor="middle" fill="#f4f1e8" font-family="Comic Sans MS, cursive">1/4</text></svg>