<svg xmlns="http://www.w3.org/2000/svg" viewBox="0 0 400 300" width="600" height="450"><rect width="100%" height="100%" fill="#26413c"/><text x="198" y="86" font-size="24" text-anchor="middle" fill="#f4f1e8" font-family="Comic Sans MS, cursive">15 pencils</text><path d="M56.4,131.4 Q99.1,131.4 141.8,132.5 Q139.3,165.8 141.3,199.2 Q98.5,199.3 55.8,200.5 Q57.6,165.8 56.3,131" fill="none" stroke="#f4f1e8" stroke-width="3" stroke-linecap="round" stroke-linejoin="round"/><path d="M156.6,131.3 Q200,130 243.4,131.3 Q244.8,165.4 243.1,199.4 Q199.6,201.9 156.2,199.9 Q158.1,165.5 157,131.1" fill="none" stroke="#f4f1e8" stroke-width="3" stroke-linecap="round" stroke-linejoin="round"/><path d="M258.4,132.8 Q300.8,134.2 343.1,131.9 Q342,165.6 343.2,199.3 Q301,201.7 258.8,200.2 Q256.5,166.7 258.6,133.3" fill="none" stroke="#f4f1e8" stroke-width="3" stroke-linecap="round" stroke-linejoin="round"/><text x="200" y="236" font-size="24" text-anchor="middle" fill="#f4f1e8" font-family="Comic Sans MS, cursive">15 ÷ 3</text><text x="200" y="274" font-size="24" text-anchor="middle" fill="#f4f1e8" font-family="Comic Sans MS, cursive">?</text></svg>