<svg xmlns="http://www.w3.org/2000/svg" viewBox="0 0 400 300" width="600" height="450"><rect width="100%" height="100%" fill="#26413c"/><path d="M64.6,51 Q77.5,50.9 90.3,51.3" fill="none" stroke="#f4f1e8" stroke-width="3" stroke-linecap="round" stroke-linejoin="round"/><text x="77.28" y="40.8" font-size="24" text-anchor="middle" fill="#f4f1e8" font-family="Comic Sans MS, cursive">3</text><text x="77.28" y="75.6" font-size="24" text-anchor="middle" fill="#f4f1e8" font-family="Comic Sans MS, cursive">4</text><path d="M99.6,34.6 Q219.9,33.5 340.2,35.3 Q343.2,135.3 340.3,235.3 Q220.3,234.4 100.4,234.1 Q100.8,134 99.9,33.9" fill="none" stroke="#f4f1e8" stroke-width="3" stroke-linecap="round" stroke-linejoin="round"/><path d="M160.9,34.8 Q160.6,134.7 160.5,234.6" fill="none" stroke="#f4f1e8" stroke-width="3" stroke-linecap="round" stroke-linejoin="round"/><path d="M220.6,34.9 Q222.3,134.6 219.2,234.3" fill="none" stroke="#f4f1e8" stroke-width="3" stroke-linecap="round" stroke-linejoin="round"/><path d="M279.2,35.8 Q276.4,135.2 280.2,234.5" fill="none" stroke="#f4f1e8" stroke-width="3" stroke-linecap="round" stroke-linejoin="round"/><path d="M100.8,84.3 Q220.7,83.3 340.7,84.3" fill="none" stroke="#f4f1e8" stroke-width="3" stroke-linecap="round" stroke-linejoin="round"/><path d="M99.9,134.2 Q219.8,134.4 339.7,135.6" fill="none" stroke="#f4f1e8" stroke-width="3" stroke-linecap="round" stroke-linejoin="round"/><path d="M99.9,185.2 Q220,182.8 340.1,184.9" fill="none" stroke="#f4f1e8" stroke-width="3" stroke-linecap="round" stroke-linejoin="round"/><path d="M100,35 h180 v50 h-180 Z" fill="#ffd166" fill-opacity="0.35"/><path d="M100.5,35.8 Q190.4,33.4 280.4,35.6 Q280.2,60.2 279.8,84.9 Q189.7,84 99.7,85 Q99.6,60.5 100.8,35.9" fill="none" stroke="#f4f1e8" stroke-width="3" stroke-linecap="round" stroke-linejoin="round"/><path d="M100,85 h180 v50 h-180 Z" fill="#ffd166" fill-opacity="0.35"/><path d="M100,84.2 Q190.2,84.3 280.3,85.9 Q281.9,110.5 280,135.1 Q189.9,137.2 99.8,135.6 Q98.8,110.1 99.9,84.6" fill="none" stroke="#f4f1e8" stroke-width="3" stroke-linecap="round" stroke-linejoin="round"/><path d="M100,135 h180 v50 h-180 Z" fill="#ffd166" fill-opacity="0.35"/><path d="M99.8,135.3 Q189.8,134 279.9,134.6 Q278.8,159.5 279.3,184.4 Q190.1,187.4 100.9,185.5 Q102.2,160.5 100,135.6" fill="none" stroke="#f4f1e8" stroke-width="3" stroke-linecap="round" stroke-linejoin="round"/><text x="60" y="250" font-size="24" text-anchor="start" fill="#f4f1e8" font-family="Comic Sans MS, cursive">20 ÷ 4</text></svg>