<svg xmlns="http://www.w3.org/2000/svg" viewBox="0 0 400 300" width="600" height="450"><rect width="100%" height="100%" fill="#26413c"/><path d="M46.7,78.8 Q67.2,79.3 87.7,77.6" fill="none" stroke="#f4f1e8" stroke-width="3" stroke-linecap="round" stroke-linejoin="round"/><path d="M87.2,77.7 Q94.1,75.2 100.8,72.1" fill="none" stroke="#f4f1e8" stroke-width="3" stroke-linecap="round" stroke-linejoin="round"/><path d="M46.5,77.9 Q46.7,74.9 47.1,72" fill="none" stroke="#f4f1e8" stroke-width="3" stroke-linecap="round" stroke-linejoin="round"/><path d="M46.3,72.9 Q72.9,70.1 99.4,66.4" fill="none" stroke="#f4f1e8" stroke-width="3" stroke-linecap="round" stroke-linejoin="round"/><path d="M99.6,65.2 Q99.4,68.2 99.3,71.1" fill="none" stroke="#f4f1e8" stroke-width="3" stroke-linecap="round" stroke-linejoin="round"/><path d="M46.3,77.5 Q46.1,80.3 46.3,83.1" fill="none" stroke="#f4f1e8" stroke-width="3" stroke-linecap="round" stroke-linejoin="round"/><path d="M46.5,83.1 Q73.2,81.2 99.7,77.4" fill="none" stroke="#f4f1e8" stroke-width="3" stroke-linecap="round" stroke-linejoin="round"/><path d="M100.8,71.6 Q100.4,74.7 99.8,77.8" fill="none" stroke="#f4f1e8" stroke-width="3" stroke-linecap="round" stroke-linejoin="round"/><path d="M120.6,77.7 Q140.7,78.2 160.7,77.1" fill="none" stroke="#f4f1e8" stroke-width="3" stroke-linecap="round" stroke-linejoin="round"/><path d="M160,77.1 Q166.4,75 172.6,72.4" fill="none" stroke="#f4f1e8" stroke-width="3" stroke-linecap="round" stroke-linejoin="round"/><path d="M120.3,78.2 Q119.8,75.4 119.5,72.6" fill="none" stroke="#f4f1e8" stroke-width="3" stroke-linecap="round" stroke-linejoin="round"/><path d="M119.6,72.5 Q145.8,68.1 172.3,65.5" fill="none" stroke="#f4f1e8" stroke-width="3" stroke-linecap="round" stroke-linejoin="round"/><path d="M173.3,66.5 Q173.2,69.1 173.2,71.7" fill="none" stroke="#f4f1e8" stroke-width="3" stroke-linecap="round" stroke-linejoin="round"/><path d="M119.2,77.8 Q119.3,81 119.1,84.2" fill="none" stroke="#f4f1e8" stroke-width="3" stroke-linecap="round" stroke-linejoin="round"/><path d="M120.2,83.6 Q146.8,80.2 173.5,77.6" fill="none" stroke="#f4f1e8" stroke-width="3" stroke-linecap="round" stroke-linejoin="round"/><path d="M173.2,71.6 Q172.8,75.1 172.6,78.7" fill="none" stroke="#f4f1e8" stroke-width="3" stroke-linecap="round" stroke-linejoin="round"/><path d="M31.4,112.4 Q69.1,112.5 106.8,113.5 Q103,164.8 106.3,216.2 Q68.5,216.3 30.8,217.5 Q33.4,164.8 31.3,112" fill="none" stroke="#f4f1e8" stroke-width="3" stroke-linecap="round" stroke-linejoin="round"/><path d="M55.6,113.6 Q54.1,165.6 56.7,217.7" fill="none" stroke="#f4f1e8" stroke-width="3" stroke-linecap="round" stroke-linejoin="round"/><path d="M81.3,112.7 Q84.3,164.5 82.3,216.4" fill="none" stroke="#f4f1e8" stroke-width="3" stroke-linecap="round" stroke-linejoin="round"/><text x="75.6" y="249" font-size="24" text-anchor="middle" fill="#f4f1e8" font-family="Comic Sans MS, cursive">15 pencils</text><text x="205" y="164" font-size="34" text-anchor="middle" fill="#f4f1e8" font-family="Comic Sans MS, cursive">?</text></svg>