<svg xmlns="http://www.w3.org/2000/svg" viewBox="0 0 400 300" width="600" height="450"><rect width="100%" height="100%" fill="#26413c"/><path d="M64.9,55.8 Q174.7,54.4 284.5,54.2 Q281.2,104.4 285.3,154.6 Q175.2,157.5 65.2,155.6 Q64.4,105.5 65.5,55.5" fill="none" stroke="#f4f1e8" stroke-width="3" stroke-linecap="round" stroke-linejoin="round"/><path d="M174.9,55.6 Q176.3,105 174.2,154.3" fill="none" stroke="#f4f1e8" stroke-width="3" stroke-linecap="round" stroke-linejoin="round"/><text x="175" y="185" font-size="24" text-anchor="middle" fill="#f4f1e8" font-family="Comic Sans MS, cursive">1/2</text><path d="M64.9,55.3 Q175.1,51.3 285.4,54.5 Q282.8,104.7 285.5,155 Q175.5,151.6 65.5,154.5 Q65.6,104.8 64.7,55.2" fill="none" stroke="#f4f1e8" stroke-width="3" stroke-linecap="round" stroke-linejoin="round"/><path d="M138.5,54.3 Q138,104.7 138,155.1" fill="none" stroke="#f4f1e8" stroke-width="3" stroke-linecap="round" stroke-linejoin="round"/><path d="M211.4,55.5 Q211.3,105.5 211.2,155.4" fill="none" stroke="#f4f1e8" stroke-width="3" stroke-linecap="round" stroke-linejoin="round"/><text x="310" y="50" font-size="18" text-anchor="middle" fill="#f4f1e8" font-family="Comic Sans MS, cursive">1 whole</text><path d="M65,55 h73 v100 h-73 Z" fill="#ffd166" fill-opacity="0.35"/><path d="M65.6,55.2 Q101.7,53.9 137.9,55.8 Q135.8,105.2 137.9,154.7 Q101.6,157 65.3,155.8 Q65.9,105.4 65.1,55" fill="none" stroke="#f4f1e8" stroke-width="3" stroke-linecap="round" stroke-linejoin="round"/><text x="175" y="245" font-size="24" text-anchor="middle" fill="#f4f1e8" font-family="Comic Sans MS, cursive">1/2 × 1/3 = ?</text></svg>