<svg xmlns="http://www.w3.org/2000/svg" viewBox="0 0 380 380">
  <rect width="380" height="380" fill="#FFFFFF"/>
  <circle cx="190" cy="190" r="150" fill="#FFFFFF" stroke="#1F1A14" stroke-width="4"/>
  <g stroke="#1F1A14" stroke-width="3">
    <line x1="190" y1="48" x2="190" y2="62"/>
    <line x1="261" y1="67" x2="254" y2="79"/>
    <line x1="313" y1="119" x2="301" y2="126"/>
    <line x1="332" y1="190" x2="318" y2="190"/>
    <line x1="313" y1="261" x2="301" y2="254"/>
    <line x1="261" y1="313" x2="254" y2="301"/>
    <line x1="190" y1="332" x2="190" y2="318"/>
    <line x1="119" y1="313" x2="126" y2="301"/>
    <line x1="67" y1="261" x2="79" y2="254"/>
    <line x1="48" y1="190" x2="62" y2="190"/>
    <line x1="67" y1="119" x2="79" y2="126"/>
    <line x1="119" y1="67" x2="126" y2="79"/>
  </g>
  <g fill="#1F1A14" font-family="Arial, sans-serif" font-size="18" text-anchor="middle" dominant-baseline="middle">
    <text x="190" y="70">12</text>
    <text x="252" y="87">1</text>
    <text x="293" y="128">2</text>
    <text x="310" y="190">3</text>
    <text x="293" y="252">4</text>
    <text x="252" y="293">5</text>
    <text x="190" y="310">6</text>
    <text x="128" y="293">7</text>
    <text x="87" y="252">8</text>
    <text x="70" y="190">9</text>
    <text x="87" y="128">10</text>
    <text x="128" y="87">11</text>
  </g>
  <line id="hour" x1="190" y1="190" x2="279.26" y2="222.5" stroke="#1F1A14" stroke-width="8" stroke-linecap="round"/>
  <line id="minute" x1="190" y1="190" x2="86.08" y2="250" stroke="#1F1A14" stroke-width="5" stroke-linecap="round"/>
  <circle id="centre" cx="190" cy="190" r="8" fill="#1F1A14"/>
</svg>